<svg width="118" height="28" viewBox="0 0 118 28" fill="none" xmlns="http://www.w3.org/2000/svg">
<path d="M35.224 21V8.22H38.176V18.408H44.368V21H35.224ZM49.9666 21.18C49.1626 21.18 48.4426 21.048 47.8066 20.784C47.1826 20.52 46.6546 20.16 46.2226 19.704C45.7906 19.248 45.4606 18.726 45.2326 18.138C45.0166 17.55 44.9086 16.932 44.9086 16.284C44.9086 15.624 45.0166 15 45.2326 14.412C45.4606 13.824 45.7906 13.302 46.2226 12.846C46.6546 12.39 47.1826 12.03 47.8066 11.766C48.4426 11.502 49.1626 11.37 49.9666 11.37C50.7706 11.37 51.4846 11.502 52.1086 11.766C52.7326 12.03 53.2606 12.39 53.6926 12.846C54.1246 13.302 54.4546 13.824 54.6826 14.412C54.9106 15 55.0246 15.624 55.0246 16.284C55.0246 16.932 54.9106 17.55 54.6826 18.138C54.4546 18.726 54.1246 19.248 53.6926 19.704C53.2606 20.16 52.7326 20.52 52.1086 20.784C51.4846 21.048 50.7706 21.18 49.9666 21.18ZM47.8606 16.284C47.8606 16.776 47.9506 17.208 48.1306 17.58C48.3226 17.952 48.5746 18.24 48.8866 18.444C49.1986 18.648 49.5586 18.75 49.9666 18.75C50.3626 18.75 50.7166 18.648 51.0286 18.444C51.3526 18.228 51.6046 17.934 51.7846 17.562C51.9646 17.19 52.0546 16.764 52.0546 16.284C52.0546 15.792 51.9646 15.36 51.7846 14.988C51.6046 14.616 51.3526 14.328 51.0286 14.124C50.7166 13.92 50.3626 13.818 49.9666 13.818C49.5586 13.818 49.1986 13.92 48.8866 14.124C48.5746 14.328 48.3226 14.616 48.1306 14.988C47.9506 15.36 47.8606 15.792 47.8606 16.284ZM60.1249 21.036C59.5009 21.036 58.9309 20.916 58.4149 20.676C57.8989 20.424 57.4549 20.082 57.0829 19.65C56.7229 19.206 56.4409 18.696 56.2369 18.12C56.0329 17.544 55.9309 16.926 55.9309 16.266C55.9309 15.57 56.0389 14.928 56.2549 14.34C56.4709 13.752 56.7709 13.236 57.1549 12.792C57.5509 12.336 58.0129 11.988 58.5409 11.748C59.0809 11.496 59.6749 11.37 60.3229 11.37C61.0309 11.37 61.6549 11.526 62.1949 11.838C62.7349 12.138 63.1669 12.558 63.4909 13.098V11.55H65.9929V20.352C65.9929 21.312 65.7589 22.14 65.2909 22.836C64.8349 23.532 64.1929 24.066 63.3649 24.438C62.5489 24.822 61.6009 25.014 60.5209 25.014C59.5129 25.014 58.6429 24.846 57.9109 24.51C57.1909 24.186 56.5609 23.724 56.0209 23.124L57.5689 21.558C57.9169 21.954 58.3489 22.266 58.8649 22.494C59.3809 22.734 59.9329 22.854 60.5209 22.854C60.9889 22.854 61.4209 22.77 61.8169 22.602C62.2129 22.434 62.5249 22.164 62.7529 21.792C62.9929 21.42 63.1129 20.94 63.1129 20.352V19.434C62.8249 19.95 62.4049 20.346 61.8529 20.622C61.3129 20.898 60.7369 21.036 60.1249 21.036ZM61.1149 18.75C61.3429 18.75 61.5529 18.72 61.7449 18.66C61.9489 18.588 62.1349 18.498 62.3029 18.39C62.4709 18.27 62.6269 18.132 62.7709 17.976C62.9149 17.808 63.0289 17.628 63.1129 17.436V15.456C62.9929 15.12 62.8189 14.832 62.5909 14.592C62.3629 14.34 62.1109 14.148 61.8349 14.016C61.5589 13.884 61.2709 13.818 60.9709 13.818C60.6709 13.818 60.3889 13.884 60.1249 14.016C59.8609 14.148 59.6329 14.34 59.4409 14.592C59.2609 14.832 59.1169 15.102 59.0089 15.402C58.9129 15.702 58.8649 16.014 58.8649 16.338C58.8649 16.686 58.9189 17.004 59.0269 17.292C59.1469 17.58 59.3089 17.838 59.5129 18.066C59.7169 18.282 59.9569 18.45 60.2329 18.57C60.5089 18.69 60.8029 18.75 61.1149 18.75ZM72.4666 21.18C71.6626 21.18 70.9426 21.048 70.3066 20.784C69.6826 20.52 69.1546 20.16 68.7226 19.704C68.2906 19.248 67.9606 18.726 67.7326 18.138C67.5166 17.55 67.4086 16.932 67.4086 16.284C67.4086 15.624 67.5166 15 67.7326 14.412C67.9606 13.824 68.2906 13.302 68.7226 12.846C69.1546 12.39 69.6826 12.03 70.3066 11.766C70.9426 11.502 71.6626 11.37 72.4666 11.37C73.2706 11.37 73.9846 11.502 74.6086 11.766C75.2326 12.03 75.7606 12.39 76.1926 12.846C76.6246 13.302 76.9546 13.824 77.1826 14.412C77.4106 15 77.5246 15.624 77.5246 16.284C77.5246 16.932 77.4106 17.55 77.1826 18.138C76.9546 18.726 76.6246 19.248 76.1926 19.704C75.7606 20.16 75.2326 20.52 74.6086 20.784C73.9846 21.048 73.2706 21.18 72.4666 21.18ZM70.3606 16.284C70.3606 16.776 70.4506 17.208 70.6306 17.58C70.8226 17.952 71.0746 18.24 71.3866 18.444C71.6986 18.648 72.0586 18.75 72.4666 18.75C72.8626 18.75 73.2166 18.648 73.5286 18.444C73.8526 18.228 74.1046 17.934 74.2846 17.562C74.4646 17.19 74.5546 16.764 74.5546 16.284C74.5546 15.792 74.4646 15.36 74.2846 14.988C74.1046 14.616 73.8526 14.328 73.5286 14.124C73.2166 13.92 72.8626 13.818 72.4666 13.818C72.0586 13.818 71.6986 13.92 71.3866 14.124C71.0746 14.328 70.8226 14.616 70.6306 14.988C70.4506 15.36 70.3606 15.792 70.3606 16.284ZM84.9323 20.496C84.6683 20.604 84.3743 20.712 84.0503 20.82C83.7383 20.928 83.4083 21.012 83.0603 21.072C82.7123 21.144 82.3703 21.18 82.0343 21.18C81.5543 21.18 81.1103 21.102 80.7023 20.946C80.3063 20.778 79.9883 20.508 79.7483 20.136C79.5203 19.764 79.4063 19.272 79.4063 18.66V13.728H78.2003V11.55H79.4063V8.544H82.2863V11.55H84.2123V13.728H82.2863V17.67C82.2863 17.982 82.3643 18.21 82.5203 18.354C82.6763 18.486 82.8743 18.552 83.1143 18.552C83.3183 18.552 83.5343 18.516 83.7623 18.444C84.0023 18.372 84.2063 18.294 84.3743 18.21L84.9323 20.496ZM86.0561 22.422C86.2961 22.494 86.5181 22.548 86.7221 22.584C86.9381 22.632 87.1301 22.656 87.2981 22.656C87.5261 22.656 87.7181 22.602 87.8741 22.494C88.0421 22.398 88.1861 22.224 88.3061 21.972C88.4261 21.732 88.5341 21.408 88.6301 21L85.0301 11.55H88.0001L90.1961 18.048L92.0681 11.55H94.7861L91.1861 22.53C91.0181 23.046 90.7601 23.502 90.4121 23.898C90.0641 24.294 89.6441 24.6 89.1521 24.816C88.6601 25.044 88.1201 25.158 87.5321 25.158C87.2801 25.158 87.0341 25.134 86.7941 25.086C86.5541 25.05 86.3081 24.984 86.0561 24.888V22.422ZM101.892 21.18C101.184 21.18 100.566 21.03 100.038 20.73C99.5098 20.418 99.0958 19.998 98.7958 19.47V24.834H95.9158V11.55H98.4178V13.08C98.7658 12.54 99.2038 12.12 99.7318 11.82C100.26 11.52 100.878 11.37 101.586 11.37C102.222 11.37 102.804 11.496 103.332 11.748C103.872 12 104.34 12.348 104.736 12.792C105.132 13.236 105.438 13.752 105.654 14.34C105.87 14.928 105.978 15.564 105.978 16.248C105.978 17.184 105.804 18.024 105.456 18.768C105.108 19.512 104.622 20.1 103.998 20.532C103.386 20.964 102.684 21.18 101.892 21.18ZM100.92 18.75C101.232 18.75 101.514 18.684 101.766 18.552C102.03 18.408 102.258 18.222 102.45 17.994C102.642 17.766 102.786 17.502 102.882 17.202C102.99 16.89 103.044 16.566 103.044 16.23C103.044 15.882 102.984 15.564 102.864 15.276C102.756 14.988 102.6 14.736 102.396 14.52C102.192 14.292 101.952 14.118 101.676 13.998C101.4 13.878 101.1 13.818 100.776 13.818C100.584 13.818 100.386 13.848 100.182 13.908C99.9898 13.968 99.8038 14.058 99.6238 14.178C99.4558 14.286 99.2998 14.418 99.1558 14.574C99.0118 14.73 98.8918 14.91 98.7958 15.114V17.058C98.9278 17.382 99.1018 17.67 99.3178 17.922C99.5338 18.174 99.7798 18.378 100.056 18.534C100.332 18.678 100.62 18.75 100.92 18.75ZM111.947 21.18C111.143 21.18 110.429 21.054 109.805 20.802C109.181 20.538 108.647 20.184 108.203 19.74C107.771 19.296 107.441 18.786 107.213 18.21C106.985 17.622 106.871 17.01 106.871 16.374C106.871 15.462 107.069 14.634 107.465 13.89C107.873 13.134 108.455 12.528 109.211 12.072C109.967 11.604 110.879 11.37 111.947 11.37C113.015 11.37 113.921 11.598 114.665 12.054C115.421 12.51 115.997 13.11 116.393 13.854C116.789 14.586 116.987 15.384 116.987 16.248C116.987 16.416 116.975 16.584 116.951 16.752C116.939 16.908 116.927 17.046 116.915 17.166H109.931C109.967 17.586 110.081 17.94 110.273 18.228C110.477 18.516 110.735 18.738 111.047 18.894C111.359 19.038 111.689 19.11 112.037 19.11C112.469 19.11 112.871 19.008 113.243 18.804C113.627 18.6 113.891 18.324 114.035 17.976L116.483 18.66C116.243 19.152 115.901 19.59 115.457 19.974C115.025 20.346 114.509 20.64 113.909 20.856C113.321 21.072 112.667 21.18 111.947 21.18ZM109.859 15.402H113.963C113.915 15.006 113.801 14.664 113.621 14.376C113.441 14.076 113.201 13.848 112.901 13.692C112.601 13.524 112.271 13.44 111.911 13.44C111.539 13.44 111.203 13.524 110.903 13.692C110.615 13.848 110.381 14.076 110.201 14.376C110.021 14.664 109.907 15.006 109.859 15.402Z" fill="#8C30F5"/>
<g clip-path="url(#clip0_6_1049)">
<path d="M8.81354e-05 12.1096L2.4571 21.2792C3.62217 25.6273 8.09149 28.2077 12.4396 27.0426L9.9826 17.873C8.81753 13.5248 4.3482 10.9445 8.81354e-05 12.1096Z" fill="#F22BB2"/>
<path d="M8.10955 9.98252L11.2118 21.5604C15.5599 20.3953 18.1403 15.926 16.9752 11.5779L13.873 5.52846e-06C9.52484 1.16508 6.94448 5.6344 8.10955 9.98252Z" fill="#8C30F5"/>
<path d="M23.9826 21.6874L27.0849 10.1096C22.7368 8.94448 18.2674 11.5248 17.1024 15.873L14.0001 27.4508C18.3482 28.6159 22.8175 26.0355 23.9826 21.6874Z" fill="#2EC5CE"/>
</g>
<defs>
<clipPath id="clip0_6_1049">
<rect width="28" height="28" fill="white"/>
</clipPath>
</defs>
</svg>
