<svg width="28" height="28" viewBox="0 0 28 28" fill="none" xmlns="http://www.w3.org/2000/svg">
<g clip-path="url(#clip0_31_295)">
<path d="M8.81354e-05 12.1096L2.4571 21.2792C3.62217 25.6273 8.09149 28.2077 12.4396 27.0426L9.9826 17.873C8.81753 13.5248 4.3482 10.9445 8.81354e-05 12.1096Z" fill="#F22BB2"/>
<path d="M8.10955 9.98252L11.2118 21.5604C15.5599 20.3953 18.1403 15.926 16.9752 11.5779L13.873 5.52846e-06C9.52484 1.16508 6.94448 5.6344 8.10955 9.98252Z" fill="#8C30F5"/>
<path d="M23.9826 21.6874L27.0849 10.1096C22.7368 8.94448 18.2674 11.5248 17.1024 15.873L14.0001 27.4508C18.3482 28.6159 22.8175 26.0355 23.9826 21.6874Z" fill="#2EC5CE"/>
</g>
<defs>
<clipPath id="clip0_31_295">
<rect width="28" height="28" fill="white"/>
</clipPath>
</defs>
</svg>
